{"title":"Flashbacks.of.a.Fool.2008.720p.BRRip.x264.Feel-Free","uid":6176620,"size":1863523103,"categoryP":"video","categoryS":"hd___movies","magnet":"?xt=urn:btih:bbdde9c00da571748c686c09411c34a28a3f4d32&amp;dn=Flashbacks.of.a.Fool.2008.720p.BRRip.x264.Feel-Free&amp;tr=udp%3A%2F%2Ftracker.openbittorrent.com%3A80&amp;tr=udp%3A%2F%2Fopen.demonii.com%3A1337&amp;tr=udp%3A%2F%2Ftracker.coppersurfer.tk%3A6969&amp;tr=udp%3A%2F%2Fexodus.desync.com%3A6969","seeders":0,"leechers":1,"uploader":"hiest","files":-1,"time":1297791470,"description":"Genre:Drama \nLanguage:English\nIMDb:http://www.imdb.com/title/tt1037218/\nSource:Bluray.x264.DD5.1-NoGrp\n\n\nFormat : MPEG-4\nFormat profile : Base Media\nCodec ID : isom\nFile size : 1.73 GiB\nDuration : 1h 53mn\nOverall bit rate : 2 174 Kbps\n\n\nVideo\nFormat settings, CABAC : Yes\nFormat settings, ReFrames : 3 frames\nFormat settings, GOP : N=1\nCodec ID : avc1\nCodec ID/Info : Advanced Video Coding\nDuration : 1h 53mn\nBit rate mode : Variable\nBit rate : 1 751 Kbps\nMaximum bit rate : 15.3 Mbps\nWidth : 1 280 pixels\nHeight : 528 pixels\nDisplay aspect ratio : 2.40:1\nFrame rate mode : Constant\nFrame rate : 23.976 fps\nColor space : YUV\nChroma subsampling : 4:2:0\nBit depth : 8 bits\nScan type : Progressive\nBits/(Pixel*Frame) : 0.108\nStream size : 1.39 GiB (80%)\nWriting library : x264\n\n\nAudio\nID : 2\nFormat : AAC\nFormat/Info : Advanced Audio Codec\nFormat version : Version 4\nFormat profile : LC\nFormat settings, SBR : No\nCodec ID : 40\nDuration : 1h 53mn\nBit rate mode : Variable\nBit rate : 422 Kbps\nMaximum bit rate : 538 Kbps\nChannel(s) : 6 channels\nChannel positions : Front: L C R, Side: L R, LFE\nSampling rate : 48.0 KHz\nStream size : 344 MiB (19%)\n\n\nPlot:\nA fading Hollywood star looks back at the days of his youth as he returns home from his best friend's funeral.\n\n\n\n\n\n\n================================== &lt;a href=&quot;\nhttp://thepiratebay.se/user/hiest&quot; rel=&quot;nofollow&quot; target=&quot;_NEW&quot;&gt;\nhttp://thepiratebay.se/user/hiest&lt;/a&gt;\n==================================\n\n\n\n\n\n\nScreen Shots:\n &lt;a href=&quot;\nhttp://images1.shareimage.org/images/vyj1eawfkynkltgrfue.png&quot; rel=&quot;nofollow&quot; target=&quot;_NEW&quot;&gt;\nhttp://images1.shareimage.org/images/vyj1eawfkynkltgrfue.png&lt;/a&gt;\n &lt;a href=&quot;\nhttp://images3.shareimage.org/images/9eqty4kg234vzcxqzd2.png&quot; rel=&quot;nofollow&quot; target=&quot;_NEW&quot;&gt;\nhttp://images3.shareimage.org/images/9eqty4kg234vzcxqzd2.png&lt;/a&gt;\n\n\n &lt;a href=&quot;\nhttp://images1.shareimage.org/images/x6g8zbtb9okatz23gizj.png&quot; rel=&quot;nofollow&quot; target=&quot;_NEW&quot;&gt;\nhttp://images1.shareimage.org/images/x6g8zbtb9okatz23gizj.png&lt;/a&gt;\n\n","torrent":{"xt":"urn:btih:bbdde9c00da571748c686c09411c34a28a3f4d32","amp;dn":"Flashbacks.of.a.Fool.2008.720p.BRRip.x264.Feel-Free","amp;tr":["udp%3A%2F%2Ftracker.openbittorrent.com%3A80","udp%3A%2F%2Fopen.demonii.com%3A1337","udp%3A%2F%2Ftracker.coppersurfer.tk%3A6969","udp%3A%2F%2Fexodus.desync.com%3A6969"],"infoHash":"bbdde9c00da571748c686c09411c34a28a3f4d32","infoHashBuffer":{"type":"Buffer","data":[187,221,233,192,13,165,113,116,140,104,108,9,65,28,52,162,138,63,77,50]},"announce":[],"urlList":[]}}